<svg xmlns="http://www.w3.org/2000/svg" xmlns:xlink="http://www.w3.org/1999/xlink" width="1000" zoomAndPan="magnify" viewBox="0 0 750 749.999995" height="1000" preserveAspectRatio="xMidYMid meet" version="1.0"><path fill="#a27021" d="M 118.683594 151.445312 C 118.683594 154.070312 118.683594 156.691406 118.683594 159.316406 C 118.683594 293.394531 118.683594 427.488281 118.664062 561.566406 C 118.664062 564.066406 118.804688 566.585938 118.472656 569.050781 C 117.855469 573.402344 115.546875 576.539062 110.84375 576.714844 C 106.019531 576.90625 102.988281 574.160156 101.914062 569.597656 C 101.402344 567.414062 101.597656 565.054688 101.597656 562.765625 C 101.597656 419.105469 101.597656 275.445312 101.597656 131.789062 C 101.597656 128.667969 101.703125 125.515625 101.316406 122.433594 C 100.628906 117.167969 103.042969 114.066406 107.710938 112.394531 C 112.339844 110.722656 115.652344 112.519531 118.402344 116.394531 C 135.539062 140.488281 152.746094 164.515625 169.921875 188.574219 C 222.183594 261.761719 274.460938 334.945312 326.71875 408.113281 C 327.917969 409.789062 329.203125 411.371094 330.878906 413.558594 C 332.390625 411.601562 333.679688 410.070312 334.839844 408.449219 C 428.933594 275.359375 523.042969 142.265625 617.15625 9.175781 C 617.277344 9 617.386719 8.84375 617.507812 8.667969 C 622.386719 1.796875 627.230469 0.0195312 631.777344 3.46875 C 636.300781 6.886719 636.300781 12.453125 631.6875 18.96875 C 558.324219 122.363281 484.945312 225.738281 411.585938 329.132812 C 355.449219 408.238281 299.3125 487.359375 243.175781 566.480469 C 241.734375 568.523438 240.339844 570.601562 238.808594 572.574219 C 235.269531 577.101562 230.617188 578.089844 226.269531 575.339844 C 221.8125 572.523438 220.613281 568.011719 223.90625 562.921875 C 231.851562 550.714844 239.832031 538.492188 248.410156 526.726562 C 269.984375 497.117188 292.003906 467.824219 313.652344 438.269531 C 321.523438 427.523438 320.539062 430.324219 313.792969 420.902344 C 250.910156 333.027344 187.976562 245.203125 125.058594 157.378906 C 123.507812 155.214844 121.90625 153.082031 120.320312 150.914062 C 119.792969 151.09375 119.226562 151.269531 118.683594 151.445312 Z M 118.683594 151.445312 " fill-opacity="1" fill-rule="nonzero"/><path fill="#a27021" d="M 583.179688 247.792969 C 569.300781 267.238281 555.402344 286.683594 541.539062 306.164062 C 493.648438 373.503906 445.789062 440.859375 397.898438 508.179688 C 342.519531 586.03125 287.140625 663.867188 231.746094 741.703125 C 230.652344 743.234375 229.683594 744.875 228.382812 746.195312 C 224.734375 749.929688 220.542969 749.875 216.527344 747.003906 C 212.566406 744.167969 211.683594 740.453125 214.589844 736.171875 C 225.792969 719.632812 236.660156 702.863281 248.234375 686.589844 C 343.1875 552.863281 438.234375 419.210938 533.347656 285.609375 C 550.734375 261.195312 568.578125 237.117188 586.121094 212.8125 C 588.65625 209.289062 591.914062 206.171875 595.859375 208.300781 C 598.820312 209.886719 600.792969 213.832031 602.414062 217.125 C 603.347656 218.992188 602.765625 221.617188 602.765625 223.90625 C 602.765625 335.6875 602.765625 447.480469 602.765625 559.257812 C 602.765625 569.40625 599.769531 574.144531 593.5 574.019531 C 587.246094 573.894531 584.660156 569.703125 584.660156 559.648438 C 584.660156 457.855469 584.660156 356.066406 584.660156 254.273438 C 584.660156 252.265625 584.660156 250.257812 584.660156 248.234375 C 584.183594 248.074219 583.691406 247.933594 583.179688 247.792969 Z M 583.179688 247.792969 " fill-opacity="1" fill-rule="nonzero"/><path fill="#a27021" d="M 269.6875 606.199219 C 260.367188 606.339844 256.210938 599.789062 260.070312 593.5 C 265.828125 584.113281 271.851562 574.847656 278.230469 565.863281 C 389.585938 409.3125 501.011719 252.792969 612.433594 96.296875 C 618.707031 87.46875 625.207031 78.820312 631.597656 70.085938 C 635.457031 64.820312 639.597656 63.535156 643.664062 66.296875 C 648.085938 69.3125 649.320312 75.898438 645.972656 80.617188 C 627.320312 106.917969 608.542969 133.125 589.855469 159.40625 C 502.753906 281.875 415.671875 404.363281 328.585938 526.832031 C 310.972656 551.597656 293.378906 576.363281 275.605469 601.003906 C 273.824219 603.488281 270.917969 605.144531 269.6875 606.199219 Z M 269.6875 606.199219 " fill-opacity="1" fill-rule="nonzero"/></svg>