<svg xmlns="http://www.w3.org/2000/svg" xmlns:xlink="http://www.w3.org/1999/xlink" width="1000" zoomAndPan="magnify" viewBox="0 0 750 749.999995" height="1000" preserveAspectRatio="xMidYMid meet" version="1.0"><defs><clipPath id="b3b28d121e"><path d="M 343.574219 517.710938 L 393.847656 517.710938 L 393.847656 566.292969 L 343.574219 566.292969 Z M 343.574219 517.710938 " clip-rule="nonzero"/></clipPath><clipPath id="604239e891"><path d="M 369.976562 545.925781 C 365.925781 537.074219 363.226562 532.351562 361.050781 530.023438 C 359.625 528.523438 357.898438 526.648438 356.625 526.875 C 355.273438 527.101562 354.074219 529.5 353.398438 531.75 C 352.125 535.800781 352.351562 545.851562 352.800781 549.898438 C 353.023438 552 353.175781 554.476562 353.925781 554.625 C 355.125 554.851562 358.574219 548.324219 360.148438 545.023438 C 361.574219 541.949219 361.875 537.976562 363.148438 535.574219 C 363.976562 534 364.800781 533.324219 366.074219 531.824219 C 368.101562 529.574219 371.773438 524.476562 374.324219 523.425781 C 375.898438 522.824219 377.550781 522.824219 378.824219 523.5 C 380.324219 524.324219 381.75 526.351562 382.425781 528.675781 C 383.476562 532.273438 383.625 541.875 381.449219 544.125 C 379.949219 545.625 375.226562 545.550781 374.398438 544.648438 C 373.800781 543.898438 374.699219 541.425781 375.300781 540.449219 C 375.75 539.625 376.425781 539.175781 377.101562 538.800781 C 377.773438 538.425781 378.675781 538.125 379.5 538.125 C 380.25 538.125 381.148438 538.351562 381.898438 538.726562 C 382.574219 539.023438 383.25 539.625 383.773438 540.300781 C 384.226562 540.898438 384.523438 541.800781 384.675781 542.550781 C 384.75 543.375 384.824219 543.898438 384.375 545.023438 C 383.175781 548.175781 375.300781 559.800781 372.601562 561.824219 C 371.699219 562.5 371.175781 562.574219 370.273438 562.648438 C 369.226562 562.648438 367.648438 562.351562 366.75 561.675781 C 365.773438 561 364.949219 559.648438 364.726562 558.601562 C 364.425781 557.476562 365.175781 554.925781 365.25 554.925781 C 365.324219 554.925781 365.023438 559.5 365.023438 559.5 C 364.949219 559.5 364.5 555.449219 365.101562 553.726562 C 365.625 552.074219 366.976562 550.351562 368.25 549.226562 C 369.523438 548.25 371.175781 548.476562 372.75 547.199219 C 375.601562 545.023438 379.648438 537.601562 382.125 535.5 C 383.324219 534.449219 384.226562 533.851562 385.199219 533.625 C 386.023438 533.398438 386.925781 533.550781 387.675781 533.773438 C 388.425781 534 389.175781 534.523438 389.773438 535.050781 C 390.300781 535.648438 390.75 536.398438 390.976562 537.148438 C 391.199219 537.898438 391.351562 538.425781 391.125 539.625 C 390.523438 543.226562 384.449219 557.023438 382.800781 561 C 382.125 562.574219 382.050781 563.324219 381.300781 564.226562 C 380.550781 565.050781 379.425781 565.875 378.375 566.101562 C 377.25 566.324219 375.824219 566.101562 374.925781 565.574219 C 373.949219 565.050781 373.050781 563.925781 372.675781 562.875 C 372.300781 561.824219 372.675781 559.425781 372.75 559.351562 C 372.898438 559.351562 373.726562 564.375 373.574219 564.375 C 373.425781 564.449219 372.226562 561.074219 371.699219 558.824219 C 371.023438 555.601562 371.25 549.976562 370.425781 546.898438 C 369.898438 544.800781 368.25 543.601562 368.25 541.800781 C 368.25 539.851562 369.300781 536.773438 370.800781 535.648438 C 372.226562 534.523438 374.851562 534.675781 376.875 534.75 C 378.824219 534.898438 380.773438 535.800781 382.648438 536.398438 C 384.449219 537 386.324219 537.449219 387.824219 538.351562 C 389.324219 539.175781 390.75 540.226562 391.726562 541.574219 C 392.699219 543 393.226562 544.726562 393.523438 546.824219 C 393.898438 549.75 393.675781 555.601562 392.699219 557.773438 C 392.101562 558.976562 391.273438 559.648438 390.375 560.101562 C 389.476562 560.550781 388.125 560.773438 387.148438 560.550781 C 386.101562 560.398438 384.976562 559.726562 384.300781 558.976562 C 383.550781 558.226562 383.023438 557.023438 382.949219 555.976562 C 382.875 554.925781 383.101562 553.648438 383.699219 552.824219 C 384.523438 551.773438 386.476562 550.425781 387.898438 550.425781 C 389.324219 550.351562 391.351562 551.398438 392.175781 552.523438 C 393.074219 553.648438 393.375 555.976562 392.925781 557.25 C 392.398438 558.601562 390.675781 560.175781 389.324219 560.476562 C 387.976562 560.851562 385.726562 560.175781 384.675781 559.351562 C 383.773438 558.675781 383.324219 557.773438 383.023438 556.5 C 382.648438 554.550781 385.273438 550.199219 384.074219 548.25 C 382.800781 546.074219 374.773438 545.773438 374.699219 544.726562 C 374.699219 543.898438 378.226562 541.949219 379.351562 542.476562 C 381 543.300781 381.675781 550.351562 381.523438 553.125 C 381.449219 554.925781 380.324219 555.976562 380.324219 557.550781 C 380.324219 559.273438 382.199219 561.75 381.824219 563.175781 C 381.601562 564.300781 380.324219 565.199219 379.425781 565.726562 C 378.75 566.101562 378 566.25 377.175781 566.175781 C 376.199219 566.101562 374.699219 565.5 373.949219 564.824219 C 373.273438 564.300781 372.898438 563.699219 372.675781 562.875 C 372.375 561.898438 372.449219 561 372.75 559.351562 C 373.574219 555.449219 378.375 543.976562 380.101562 539.851562 C 380.925781 537.824219 381.148438 536.550781 382.125 535.5 C 382.949219 534.601562 384.226562 533.851562 385.199219 533.625 C 386.023438 533.398438 386.851562 533.476562 387.675781 533.773438 C 388.648438 534.148438 389.925781 535.199219 390.523438 536.023438 C 390.976562 536.773438 391.199219 537.523438 391.199219 538.351562 C 391.199219 539.398438 390.898438 540.375 390.148438 541.875 C 388.425781 545.023438 382.273438 554.175781 378.976562 555.449219 C 377.25 556.125 375 554.101562 374.25 554.773438 C 373.425781 555.523438 374.773438 558.75 374.324219 559.949219 C 374.023438 560.851562 373.351562 561.375 372.601562 561.824219 C 371.699219 562.351562 370.125 562.726562 369 562.574219 C 367.875 562.425781 366.523438 561.601562 365.773438 560.773438 C 365.175781 560.175781 364.800781 559.425781 364.726562 558.601562 C 364.5 557.550781 364.726562 556.351562 365.25 554.925781 C 366.226562 552.300781 369.449219 547.726562 371.476562 544.949219 C 373.050781 542.851562 374.773438 540.601562 376.125 539.476562 C 376.875 538.875 377.398438 538.5 378.226562 538.351562 C 379.273438 538.125 380.851562 538.199219 381.898438 538.726562 C 382.875 539.175781 383.925781 540.300781 384.300781 541.351562 C 384.75 542.398438 384.675781 543.824219 384.375 545.023438 C 384.148438 546.148438 383.550781 547.125 382.800781 548.175781 C 381.824219 549.449219 380.476562 551.476562 378.898438 551.925781 C 377.324219 552.449219 374.625 552.148438 373.351562 551.25 C 372.226562 550.425781 371.699219 548.925781 371.324219 547.199219 C 370.726562 544.574219 371.175781 539.851562 371.550781 536.851562 C 371.925781 534.449219 371.925781 531.226562 373.199219 530.476562 C 374.476562 529.726562 378.75 530.773438 379.125 531.898438 C 379.5 533.25 374.023438 536.023438 372.300781 538.800781 C 370.425781 541.726562 370.050781 546.226562 368.625 549.226562 C 367.5 551.773438 366.300781 553.875 364.800781 555.976562 C 363.300781 558.226562 361.351562 560.925781 359.625 562.351562 C 358.273438 563.398438 357.074219 564.148438 355.5 564.449219 C 353.773438 564.675781 351.226562 564.375 349.726562 563.550781 C 348.375 562.800781 347.476562 561.523438 346.574219 560.101562 C 345.601562 558.449219 344.773438 556.726562 344.25 553.949219 C 343.273438 548.625 343.875 534.675781 344.476562 529.726562 C 344.773438 527.476562 344.851562 526.5 345.675781 524.851562 C 346.800781 522.675781 349.199219 519.226562 351.375 518.25 C 353.101562 517.425781 355.125 517.726562 357.074219 518.175781 C 359.324219 518.625 361.875 519.523438 364.050781 521.25 C 366.898438 523.351562 369.898438 527.773438 371.925781 530.625 C 373.5 532.726562 374.476562 534.300781 375.523438 536.476562 C 376.648438 538.875 378.601562 542.398438 378.523438 544.425781 C 378.523438 545.625 377.925781 546.601562 377.175781 547.273438 C 376.5 547.949219 375.300781 548.550781 374.324219 548.550781 C 373.273438 548.625 372 548.101562 371.25 547.574219 C 370.648438 547.199219 369.976562 545.925781 369.976562 545.925781 " clip-rule="nonzero"/></clipPath><clipPath id="8007b16a88"><path d="M 375 507.710938 L 390 507.710938 L 390 522 L 375 522 Z M 375 507.710938 " clip-rule="nonzero"/></clipPath><clipPath id="2f00506cdd"><path d="M 349.230469 523 L 400.980469 523 L 400.980469 569.210938 L 349.230469 569.210938 Z M 349.230469 523 " clip-rule="nonzero"/></clipPath></defs><path fill="#000000" d="M 492.777344 518.980469 L 375.480469 514.054688 C 375.480469 514.054688 223.886719 568.65625 170.707031 486.039062 C 103.941406 382.308594 181.378906 331.953125 217.503906 298.28125 C 248.207031 269.667969 243.25 187.96875 243.5625 182.21875 C 243.519531 102.820312 257.125 55.339844 301.28125 29.296875 C 349.796875 0.683594 392.769531 9.351562 392.769531 9.351562 C 392.769531 9.351562 444.625 4.257812 476.597656 54.335938 C 498.402344 88.480469 506.148438 134.226562 508.40625 182.132812 C 516.765625 359.285156 593.070312 311.394531 603.800781 409.160156 C 612.972656 492.734375 492.777344 518.980469 492.777344 518.980469 Z M 57.53125 573.226562 L 67.796875 574.425781 C 69.144531 574.527344 70.207031 575.636719 70.269531 577.011719 L 71.949219 613.179688 L 71.65625 620.191406 L 72.140625 620.925781 C 72.140625 620.925781 54.328125 667.738281 44.21875 697.957031 L 120.402344 698.320312 C 110.414062 671.378906 90.226562 621.65625 89.835938 620.800781 L 90.261719 576.34375 C 90.273438 574.964844 91.296875 573.8125 92.644531 573.664062 L 103.703125 572.289062 C 104.757812 572.171875 105.640625 571.433594 105.960938 570.402344 L 108.835938 565.53125 C 109.382812 563.765625 108.085938 561.972656 106.273438 561.984375 L 57.046875 562.171875 C 55.492188 562.183594 54.273438 563.542969 54.40625 565.125 L 55.066406 570.738281 C 55.175781 572.070312 56.222656 573.128906 57.53125 573.226562 Z M 57.53125 573.226562 " fill-opacity="1" fill-rule="nonzero"/><path fill="#a27021" d="M 579.636719 701.652344 C 492.601562 693.304688 258.082031 693.304688 171.042969 701.652344 C 86.394531 675.421875 128.71875 571.097656 147.019531 496.921875 C 147.019531 496.921875 160.21875 395.878906 191.320312 361.003906 C 222.421875 326.128906 291.394531 318.449219 291.394531 318.449219 C 296.894531 331.675781 306.871094 341.878906 318.074219 349.671875 C 333.445312 360.359375 351.039062 366.253906 368.875 367.402344 C 369.621094 367.453125 370.371094 367.5 371.117188 367.535156 C 371.804688 367.5625 372.496094 367.574219 373.183594 367.589844 C 373.902344 367.605469 374.621094 367.621094 375.339844 367.621094 C 376.0625 367.621094 376.78125 367.605469 377.5 367.589844 C 378.1875 367.574219 378.875 367.5625 379.566406 367.535156 C 380.3125 367.5 381.0625 367.453125 381.808594 367.402344 C 399.640625 366.253906 417.238281 360.359375 432.605469 349.671875 C 443.8125 341.878906 453.785156 331.675781 459.289062 318.449219 C 459.289062 318.449219 528.257812 326.128906 559.363281 361.003906 C 590.460938 395.878906 603.664062 496.921875 603.664062 496.921875 C 621.964844 571.097656 664.289062 675.421875 579.636719 701.652344 Z M 579.636719 701.652344 C 492.601562 693.304688 258.082031 693.304688 171.042969 701.652344 C 86.394531 675.421875 128.71875 571.097656 147.019531 496.921875 C 147.019531 496.921875 160.21875 395.878906 191.320312 361.003906 C 222.421875 326.128906 291.394531 318.449219 291.394531 318.449219 C 296.894531 331.675781 306.871094 341.878906 318.074219 349.671875 C 333.445312 360.359375 351.039062 366.253906 368.875 367.402344 C 369.621094 367.453125 370.371094 367.5 371.117188 367.535156 C 371.804688 367.5625 372.496094 367.574219 373.183594 367.589844 C 373.902344 367.605469 374.621094 367.621094 375.339844 367.621094 C 376.0625 367.621094 376.78125 367.605469 377.5 367.589844 C 378.1875 367.574219 378.875 367.5625 379.566406 367.535156 C 380.3125 367.5 381.0625 367.453125 381.808594 367.402344 C 399.640625 366.253906 417.238281 360.359375 432.605469 349.671875 C 443.8125 341.878906 453.785156 331.675781 459.289062 318.449219 C 459.289062 318.449219 528.257812 326.128906 559.363281 361.003906 C 590.460938 395.878906 603.664062 496.921875 603.664062 496.921875 C 621.964844 571.097656 664.289062 675.421875 579.636719 701.652344 Z M 579.636719 701.652344 " fill-opacity="1" fill-rule="nonzero"/><path fill="#c9c9c6" d="M 135.984375 402.988281 L 612.671875 402.988281 C 616.320312 402.988281 619.117188 405.890625 618.59375 409.132812 L 573.4375 701.652344 L 175.21875 701.652344 L 130.066406 409.132812 C 129.539062 405.890625 132.339844 402.988281 135.984375 402.988281 Z M 135.984375 402.988281 L 612.671875 402.988281 C 616.320312 402.988281 619.117188 405.890625 618.59375 409.132812 L 573.4375 701.652344 L 175.21875 701.652344 L 130.066406 409.132812 C 129.539062 405.890625 132.339844 402.988281 135.984375 402.988281 Z M 135.984375 402.988281 " fill-opacity="1" fill-rule="nonzero"/><path fill="#f1c27d" d="M 295.167969 193.753906 C 300.453125 212.835938 311.660156 233.90625 335.082031 245.378906 L 335.082031 287.867188 C 335.082031 297.710938 328.648438 306.398438 319.226562 309.265625 L 291.394531 318.449219 C 296.894531 331.675781 306.871094 341.878906 318.074219 349.671875 C 352.527344 373.628906 398.152344 373.628906 432.601562 349.671875 C 443.804688 341.878906 453.78125 331.675781 459.28125 318.449219 L 425.632812 307.140625 C 420.359375 305.539062 416.753906 300.671875 416.753906 295.160156 L 416.753906 244.214844 C 434.4375 233.824219 445.796875 215.75 453.082031 192.875 C 470.082031 198.714844 482.421875 170.070312 475.691406 157.703125 C 468.878906 145.183594 458.34375 154.113281 458.34375 154.113281 C 436.882812 156.597656 410.191406 108.445312 404.15625 77.015625 C 403.972656 76.054688 402.707031 75.941406 402.367188 76.851562 C 384.574219 124.324219 321.234375 173.289062 294.480469 154.339844 C 294.480469 154.339844 283.347656 145.183594 276.535156 157.703125 C 270.25 169.257812 273.691406 194.800781 295.167969 193.753906 Z M 0.6875 700.585938 L 0 734.910156 C -0.0585938 737.804688 2.265625 740.191406 5.164062 740.210938 L 744.691406 745.5 C 747.65625 745.523438 750.039062 743.0625 749.925781 740.101562 L 748.539062 704.019531 C 748.429688 701.234375 746.148438 699.03125 743.367188 699.015625 L 5.910156 695.488281 C 3.070312 695.476562 0.746094 697.746094 0.6875 700.585938 Z M 0.6875 700.585938 " fill-opacity="1" fill-rule="nonzero"/><path fill="#000000" d="M 365.359375 544.625 C 365.359375 550.304688 369.382812 554.925781 374.328125 554.925781 C 379.273438 554.925781 383.296875 550.304688 383.296875 544.625 C 383.296875 538.945312 379.273438 534.324219 374.328125 534.324219 C 369.386719 534.324219 365.359375 538.945312 365.359375 544.625 Z M 379.867188 544.625 C 379.867188 548.414062 377.386719 551.496094 374.328125 551.496094 C 371.273438 551.496094 368.789062 548.414062 368.789062 544.625 C 368.789062 540.835938 371.273438 537.75 374.328125 537.75 C 377.386719 537.75 379.867188 540.835938 379.867188 544.625 Z M 740.394531 713.945312 C 718.128906 713.632812 695.863281 713.386719 673.597656 713.167969 C 646.234375 712.898438 618.867188 712.671875 591.503906 712.480469 C 562.710938 712.277344 533.917969 712.113281 505.121094 711.996094 C 478.363281 711.886719 451.601562 711.816406 424.84375 711.828125 C 403.609375 711.835938 382.375 711.878906 361.140625 712.089844 C 359.09375 712.109375 357.042969 712.132812 354.992188 712.15625 C 352.789062 712.183594 352.785156 715.613281 354.992188 715.585938 C 375.289062 715.339844 395.585938 715.285156 415.882812 715.261719 C 442.234375 715.234375 468.585938 715.289062 494.933594 715.382812 C 523.671875 715.488281 552.410156 715.644531 581.144531 715.835938 C 608.800781 716.019531 636.453125 716.242188 664.105469 716.503906 C 687.191406 716.722656 710.28125 716.96875 733.367188 717.277344 C 735.710938 717.308594 738.050781 717.339844 740.394531 717.375 C 742.601562 717.40625 742.605469 713.976562 740.394531 713.945312 Z M 447.992188 727.359375 C 422.976562 727.574219 397.960938 727.625 372.949219 727.640625 C 341.261719 727.660156 309.578125 727.601562 277.890625 727.5 C 244.296875 727.390625 210.707031 727.230469 177.113281 727.019531 C 146.460938 726.824219 115.804688 726.59375 85.152344 726.289062 C 62.058594 726.058594 38.964844 725.804688 15.875 725.390625 C 13.761719 725.355469 11.644531 725.316406 9.53125 725.273438 C 7.324219 725.230469 7.324219 728.65625 9.53125 728.699219 C 31.429688 729.132812 53.328125 729.382812 75.226562 729.613281 C 105.308594 729.929688 135.394531 730.171875 165.476562 730.371094 C 198.980469 730.59375 232.480469 730.765625 265.984375 730.886719 C 298.058594 731.003906 330.128906 731.074219 362.199219 731.074219 C 388.214844 731.070312 414.226562 731.035156 440.242188 730.847656 C 442.824219 730.828125 445.40625 730.808594 447.992188 730.789062 C 450.195312 730.769531 450.199219 727.339844 447.992188 727.359375 Z M 145.75 711.113281 C 158.957031 711.410156 172.171875 711.425781 185.382812 711.515625 C 202.1875 711.632812 218.996094 711.71875 235.800781 711.871094 C 242.007812 711.925781 248.21875 711.972656 254.425781 712.113281 C 256.632812 712.164062 256.632812 708.734375 254.425781 708.683594 C 241.21875 708.390625 228.003906 708.375 214.792969 708.28125 C 197.988281 708.167969 181.179688 708.078125 164.375 707.929688 C 158.167969 707.871094 151.957031 707.824219 145.75 707.6875 C 143.542969 707.636719 143.542969 711.066406 145.75 711.113281 Z M 711.359375 730.113281 C 694.714844 730.109375 678.066406 729.804688 661.421875 729.660156 C 658.238281 729.632812 655.054688 729.597656 651.871094 729.59375 C 649.664062 729.59375 649.660156 733.023438 651.871094 733.023438 C 668.515625 733.027344 685.160156 733.332031 701.804688 733.476562 C 704.988281 733.507812 708.175781 733.542969 711.359375 733.542969 C 713.5625 733.542969 713.566406 730.117188 711.359375 730.113281 Z M 282.84375 149.925781 C 282.484375 139.105469 284.109375 128.28125 286.597656 117.777344 C 289.355469 106.125 293.238281 94.703125 298.136719 83.777344 C 300.824219 77.78125 303.828125 71.925781 307.203125 66.289062 C 308.335938 64.390625 305.375 62.664062 304.242188 64.558594 C 298.074219 74.867188 293.105469 85.898438 289.101562 97.214844 C 285.121094 108.472656 282.070312 120.109375 280.46875 131.953125 C 279.660156 137.910156 279.21875 143.914062 279.417969 149.925781 C 279.492188 152.125 282.917969 152.136719 282.84375 149.925781 Z M 274.5625 143.695312 C 271.734375 138.152344 269.605469 132.246094 268.257812 126.167969 C 266.90625 120.066406 266.34375 113.625 267.582031 107.460938 C 268.015625 105.304688 264.710938 104.382812 264.277344 106.550781 C 261.648438 119.628906 265.664062 133.78125 271.601562 145.425781 C 272.605469 147.390625 275.5625 145.660156 274.5625 143.695312 Z M 470.394531 144.980469 C 473.175781 139.171875 475.765625 133.199219 476.972656 126.839844 C 478.179688 120.460938 478.183594 113.921875 478.230469 107.453125 C 478.246094 105.246094 474.816406 105.242188 474.800781 107.453125 C 474.757812 113.601562 474.816406 119.863281 473.664062 125.929688 C 472.511719 132.003906 470.09375 137.699219 467.433594 143.25 C 466.484375 145.230469 469.441406 146.96875 470.394531 144.980469 Z M 288.269531 177.160156 C 288.273438 177.152344 288.269531 177.15625 288.273438 177.144531 C 288.285156 177.101562 288.355469 176.886719 288.375 176.8125 C 288.414062 176.746094 288.496094 176.585938 288.511719 176.5625 C 288.601562 176.421875 288.695312 176.335938 288.835938 176.261719 C 288.902344 176.230469 288.925781 176.210938 288.933594 176.199219 C 288.953125 176.203125 288.972656 176.203125 289.039062 176.199219 C 289.128906 176.195312 289.277344 176.1875 289.378906 176.195312 C 289.621094 176.214844 289.894531 176.300781 290.140625 176.417969 C 290.878906 176.785156 291.441406 177.414062 291.867188 178.105469 C 292.386719 178.871094 293.375 179.210938 294.210938 178.71875 C 295 178.261719 295.316406 177.167969 294.828125 176.375 C 291.5 171.460938 287.933594 166.714844 284.144531 162.148438 C 283.554688 161.4375 282.332031 161.539062 281.722656 162.148438 C 281.015625 162.855469 281.128906 163.859375 281.722656 164.574219 C 283.957031 167.269531 286.078125 170.058594 288.148438 172.882812 C 287.699219 173.003906 287.257812 173.183594 286.832031 173.484375 C 284.574219 175.085938 283.96875 178.808594 286.585938 180.386719 C 288.480469 181.527344 290.207031 178.566406 288.316406 177.425781 C 288.296875 177.414062 288.300781 177.417969 288.285156 177.410156 C 288.285156 177.410156 288.28125 177.40625 288.28125 177.40625 C 288.28125 177.402344 288.28125 177.402344 288.28125 177.398438 C 288.265625 177.351562 288.261719 177.355469 288.253906 177.339844 C 288.257812 177.316406 288.261719 177.308594 288.265625 177.246094 C 288.269531 177.1875 288.269531 177.175781 288.269531 177.160156 Z M 456.136719 178.71875 C 456.984375 179.214844 457.960938 178.875 458.484375 178.105469 C 458.894531 177.4375 459.417969 176.859375 460.109375 176.476562 C 460.335938 176.347656 460.625 176.234375 460.859375 176.199219 C 460.996094 176.183594 461.171875 176.1875 461.308594 176.199219 C 461.378906 176.207031 461.398438 176.203125 461.417969 176.203125 C 461.429688 176.214844 461.449219 176.230469 461.515625 176.261719 C 461.640625 176.324219 461.769531 176.464844 461.792969 176.496094 C 461.855469 176.585938 461.90625 176.683594 461.957031 176.78125 C 461.964844 176.820312 462.046875 177.019531 462.058594 177.066406 C 462.074219 177.125 462.078125 177.121094 462.085938 177.148438 C 462.082031 177.167969 462.078125 177.175781 462.082031 177.246094 C 462.085938 177.3125 462.089844 177.320312 462.09375 177.339844 C 462.085938 177.359375 462.082031 177.355469 462.070312 177.398438 C 462.070312 177.402344 462.066406 177.402344 462.066406 177.40625 C 462.050781 177.414062 462.054688 177.414062 462.035156 177.425781 C 460.148438 178.566406 461.867188 181.53125 463.761719 180.386719 C 466.378906 178.808594 465.777344 175.082031 463.519531 173.484375 C 463.089844 173.183594 462.648438 173.003906 462.203125 172.886719 C 464.269531 170.058594 466.390625 167.269531 468.628906 164.574219 C 469.21875 163.863281 469.324219 162.847656 468.628906 162.148438 C 468.019531 161.542969 466.796875 161.433594 466.203125 162.148438 C 462.417969 166.714844 458.847656 171.460938 455.523438 176.375 C 455.035156 177.164062 455.351562 178.261719 456.136719 178.71875 Z M 462.058594 177.429688 C 462.046875 177.445312 462.03125 177.460938 461.996094 177.527344 C 461.988281 177.5 462.019531 177.464844 462.058594 177.429688 Z M 349.253906 255.117188 C 355.203125 257.101562 361.347656 258.488281 367.566406 259.277344 C 379.6875 260.820312 391.738281 258.632812 403.152344 254.46875 C 408.644531 252.460938 414.21875 250.070312 418.953125 246.578125 C 420.707031 245.285156 419 242.308594 417.222656 243.621094 C 413.246094 246.550781 408.667969 248.683594 404.085938 250.464844 C 398.601562 252.597656 392.914062 254.257812 387.125 255.335938 C 375.554688 257.492188 363.890625 255.992188 352.691406 252.613281 C 347.15625 250.941406 341.582031 248.84375 336.761719 245.59375 C 334.925781 244.359375 333.207031 247.328125 335.03125 248.554688 C 339.359375 251.472656 344.324219 253.472656 349.253906 255.117188 Z M 379.15625 185.363281 C 379.886719 168.992188 380.046875 152.632812 379.570312 136.253906 C 379.507812 134.054688 376.078125 134.042969 376.144531 136.253906 C 376.621094 152.632812 376.460938 168.992188 375.726562 185.363281 C 375.628906 187.566406 379.058594 187.5625 379.15625 185.363281 Z M 406.53125 131.988281 C 412.195312 131.15625 417.65625 134.699219 420.648438 139.367188 C 421.835938 141.21875 424.804688 139.5 423.609375 137.636719 C 419.707031 131.554688 412.941406 127.605469 405.617188 128.683594 C 404.703125 128.816406 404.199219 129.976562 404.421875 130.789062 C 404.691406 131.773438 405.609375 132.121094 406.53125 131.988281 Z M 387.320312 31.734375 C 387.542969 31.8125 387.765625 31.890625 387.984375 31.972656 C 388.070312 32.007812 388.160156 32.039062 388.246094 32.074219 C 388.246094 32.074219 388.394531 32.136719 388.460938 32.164062 C 388.53125 32.195312 388.617188 32.230469 388.617188 32.230469 C 388.703125 32.269531 388.785156 32.308594 388.871094 32.351562 C 389.085938 32.449219 389.296875 32.554688 389.503906 32.664062 C 390.296875 33.074219 391.058594 33.542969 391.78125 34.066406 C 391.859375 34.121094 391.933594 34.175781 392.011719 34.234375 C 392.042969 34.257812 392.039062 34.253906 392.058594 34.265625 C 392.222656 34.398438 392.386719 34.53125 392.546875 34.664062 C 392.890625 34.953125 393.21875 35.253906 393.539062 35.566406 C 393.859375 35.878906 394.167969 36.199219 394.460938 36.535156 C 394.617188 36.710938 394.769531 36.890625 394.917969 37.070312 C 394.976562 37.144531 395.035156 37.21875 395.097656 37.292969 C 394.84375 36.988281 395.140625 37.351562 395.171875 37.394531 C 395.703125 38.109375 396.675781 38.546875 397.515625 38.007812 C 398.222656 37.550781 398.703125 36.429688 398.128906 35.664062 C 395.617188 32.292969 392.222656 29.78125 388.230469 28.429688 C 387.382812 28.140625 386.320312 28.761719 386.121094 29.628906 C 385.90625 30.578125 386.410156 31.425781 387.320312 31.734375 Z M 410.40625 43.121094 C 410.554688 42.996094 410.703125 42.871094 410.855469 42.75 C 410.90625 42.71875 411.191406 42.507812 411.226562 42.484375 C 411.585938 42.234375 411.957031 42 412.339844 41.785156 C 412.671875 41.59375 413.011719 41.417969 413.359375 41.253906 C 413.410156 41.226562 413.996094 40.972656 413.699219 41.09375 C 413.902344 41.011719 414.109375 40.933594 414.3125 40.859375 C 416.074219 40.226562 417.269531 40.03125 419.011719 40.039062 C 419.910156 40.042969 420.765625 39.246094 420.726562 38.324219 C 420.683594 37.394531 419.972656 36.613281 419.011719 36.609375 C 414.957031 36.597656 411.0625 38.082031 407.980469 40.695312 C 407.296875 41.277344 407.339844 42.527344 407.980469 43.121094 C 408.710938 43.789062 409.675781 43.742188 410.40625 43.121094 Z M 393.082031 47.328125 C 391.886719 47.328125 390.695312 47.328125 389.503906 47.328125 C 389.0625 47.328125 388.601562 47.519531 388.292969 47.828125 C 387.996094 48.125 387.769531 48.613281 387.789062 49.042969 C 387.832031 49.96875 388.542969 50.753906 389.503906 50.753906 C 390.695312 50.753906 391.886719 50.753906 393.082031 50.753906 C 393.519531 50.753906 393.980469 50.5625 394.292969 50.253906 C 394.589844 49.957031 394.8125 49.46875 394.792969 49.042969 C 394.753906 48.113281 394.042969 47.328125 393.082031 47.328125 Z M 346.929688 177.832031 C 350.261719 177.832031 352.964844 173.679688 352.964844 168.554688 C 352.964844 163.433594 350.261719 159.277344 346.929688 159.277344 C 343.597656 159.277344 340.894531 163.429688 340.894531 168.554688 C 340.894531 173.679688 343.597656 177.832031 346.929688 177.832031 Z M 407.289062 177.832031 C 410.621094 177.832031 413.324219 173.679688 413.324219 168.554688 C 413.324219 163.433594 410.621094 159.277344 407.289062 159.277344 C 403.957031 159.277344 401.253906 163.429688 401.253906 168.554688 C 401.253906 173.679688 403.957031 177.832031 407.289062 177.832031 Z M 353.089844 204.609375 C 357.332031 210.78125 364.054688 214.214844 371.378906 215.222656 C 379.464844 216.332031 388.109375 215.164062 394.675781 210.023438 C 396.664062 208.464844 398.402344 206.585938 399.753906 204.445312 C 400.933594 202.574219 397.96875 200.851562 396.792969 202.714844 C 394.398438 206.507812 390.339844 209.421875 385.949219 210.851562 C 378.882812 213.15625 370.054688 212.726562 363.40625 209.28125 C 360.472656 207.761719 357.921875 205.609375 356.046875 202.878906 C 354.804688 201.074219 351.835938 202.785156 353.089844 204.609375 Z M 65.179688 648.371094 C 65.199219 648.371094 65.214844 648.371094 65.234375 648.371094 L 79.097656 647.925781 C 80.042969 647.894531 80.78125 647.101562 80.753906 646.15625 C 80.722656 645.210938 79.996094 644.507812 78.984375 644.496094 L 65.125 644.941406 C 64.175781 644.972656 63.4375 645.765625 63.464844 646.710938 C 63.496094 647.640625 64.257812 648.371094 65.179688 648.371094 Z M 59.742188 660.886719 L 70.023438 661.335938 C 70.050781 661.335938 70.074219 661.335938 70.101562 661.335938 C 71.011719 661.335938 71.769531 660.617188 71.808594 659.695312 C 71.851562 658.753906 71.117188 657.949219 70.171875 657.910156 L 59.886719 657.464844 C 59.042969 657.375 58.144531 658.152344 58.101562 659.101562 C 58.0625 660.046875 58.796875 660.847656 59.742188 660.886719 Z M 55.792969 672.515625 L 75.910156 672.515625 C 76.859375 672.515625 77.625 671.746094 77.625 670.800781 C 77.625 669.855469 76.859375 669.085938 75.910156 669.085938 L 55.792969 669.085938 C 54.84375 669.085938 54.078125 669.855469 54.078125 670.800781 C 54.078125 671.746094 54.84375 672.515625 55.792969 672.515625 Z M 55.792969 672.515625 " fill-opacity="1" fill-rule="nonzero"/><g clip-path="url(#b3b28d121e)"><g clip-path="url(#604239e891)"><path fill="#c9c9c6" d="M 341.25 515.175781 L 396.59375 515.175781 L 396.59375 569.25 L 341.25 569.25 Z M 341.25 515.175781 " fill-opacity="1" fill-rule="nonzero"/></g></g><g clip-path="url(#8007b16a88)"><path fill="#ffffff" d="M 389.566406 507.710938 C 389.566406 515.5 383.25 521.808594 375.460938 521.8125 C 375.460938 514.023438 381.777344 507.710938 389.566406 507.710938 Z M 389.566406 507.710938 " fill-opacity="1" fill-rule="nonzero"/></g><g clip-path="url(#2f00506cdd)"><path fill="#ffffff" d="M 388.535156 540.402344 C 388.535156 535.402344 392.140625 531.15625 397.183594 529.554688 C 393.988281 525.601562 389.355469 523.09375 384.175781 523.09375 C 380.824219 523.09375 377.308594 525.035156 377.308594 525.035156 C 376.292969 525.59375 374.628906 525.59375 373.613281 525.035156 C 373.613281 525.035156 370.097656 523.09375 366.746094 523.09375 C 357.121094 523.09375 349.3125 531.703125 349.316406 542.324219 C 349.316406 557.183594 356.140625 569.246094 364.566406 569.246094 C 368.601562 569.246094 373.542969 566.914062 373.542969 566.914062 C 374.601562 566.414062 376.328125 566.414062 377.382812 566.914062 C 377.382812 566.914062 382.320312 569.246094 386.355469 569.246094 C 392.867188 569.246094 398.40625 562.03125 400.59375 551.894531 C 393.847656 551.441406 388.535156 546.472656 388.535156 540.402344 Z M 386.355469 564.117188 C 384.175781 564.117188 380.84375 562.875 379.574219 562.273438 C 378.058594 561.558594 376.503906 561.40625 375.460938 561.40625 C 374.425781 561.40625 372.867188 561.558594 371.355469 562.273438 C 369.832031 562.988281 366.636719 564.117188 364.566406 564.117188 C 359.789062 564.117188 354.445312 554.796875 354.445312 542.324219 C 354.445312 538.464844 355.785156 534.859375 358.21875 532.171875 C 360.527344 529.625 363.554688 528.222656 366.746094 528.222656 C 368.417969 528.222656 370.667969 529.265625 371.140625 529.523438 C 372.722656 530.394531 374.363281 530.582031 375.460938 530.582031 C 376.558594 530.582031 378.199219 530.394531 379.78125 529.523438 C 380.703125 529.027344 382.734375 528.222656 384.175781 528.222656 C 385.605469 528.222656 386.996094 528.503906 388.300781 529.039062 C 385.226562 532.058594 383.40625 536.089844 383.40625 540.402344 C 383.40625 547.097656 387.808594 552.964844 394.15625 555.59375 C 392.183594 560.679688 389.164062 564.117188 386.355469 564.117188 Z M 386.355469 564.117188 " fill-opacity="1" fill-rule="nonzero"/></g></svg>