<svg xmlns="http://www.w3.org/2000/svg" xmlns:xlink="http://www.w3.org/1999/xlink" width="1000" zoomAndPan="magnify" viewBox="0 0 750 749.999995" height="1000" preserveAspectRatio="xMidYMid meet" version="1.0"><path fill="#000000" d="M 418.078125 205.734375 C 427.972656 342.464844 387.8125 426.675781 387.8125 426.675781 L 405.105469 502.339844 L 386.949219 561.140625 C 386.949219 561.140625 184.308594 659.144531 115.996094 640.984375 C 47.679688 622.824219 50.277344 527.992188 87.171875 424.222656 C 134.59375 290.84375 102.449219 318.148438 104.179688 194.492188 C 105.90625 70.832031 186.269531 35.195312 207.082031 28.460938 C 295.285156 -0.0742188 405.394531 30.480469 418.078125 205.734375 Z M 418.078125 205.734375 C 427.972656 342.464844 401.9375 426.046875 401.9375 426.046875 L 405.105469 502.339844 L 386.949219 561.140625 C 386.949219 561.140625 184.308594 659.144531 115.996094 640.984375 C 47.679688 622.824219 50.277344 527.992188 87.171875 424.222656 C 134.59375 290.84375 102.449219 318.148438 104.179688 194.492188 C 105.90625 70.832031 186.269531 35.195312 207.082031 28.460938 C 295.285156 -0.0742188 405.394531 30.480469 418.078125 205.734375 Z M 418.078125 205.734375 " fill-opacity="1" fill-rule="nonzero"/><path fill="#a27021" d="M 345.253906 361.769531 L 432.5625 332.964844 L 467.011719 352.5625 C 467.011719 352.5625 482.457031 333.855469 499.085938 319.300781 C 702.214844 422.648438 688.257812 506.097656 644.601562 530.15625 C 600.949219 554.210938 508.492188 501.050781 508.492188 501.050781 C 508.492188 501.050781 488.296875 725.265625 482.0625 735.957031 C 473.921875 749.914062 208.941406 738.628906 203.003906 738.628906 C 197.0625 738.628906 199.4375 718.4375 199.4375 718.4375 C 199.4375 718.4375 141.929688 736.253906 120.644531 688.738281 C 94.511719 623.40625 116.550781 440.402344 149.152344 392.359375 C 171.722656 359.097656 237.15625 346.03125 237.15625 346.03125 Z M 345.253906 361.769531 L 432.5625 332.964844 L 467.011719 352.5625 C 467.011719 352.5625 480.359375 332.777344 496.992188 318.226562 C 700.121094 421.574219 688.257812 506.097656 644.601562 530.15625 C 600.949219 554.210938 508.492188 501.050781 508.492188 501.050781 C 508.492188 501.050781 488.296875 725.265625 482.0625 735.957031 C 473.921875 749.914062 208.941406 738.628906 203.003906 738.628906 C 197.0625 738.628906 199.4375 718.4375 199.4375 718.4375 C 199.4375 718.4375 141.929688 736.253906 120.644531 688.738281 C 85.714844 611.789062 101.476562 444.070312 141.527344 394.734375 C 166.863281 363.527344 237.15625 346.03125 237.15625 346.03125 Z M 345.253906 361.769531 " fill-opacity="1" fill-rule="nonzero"/><path fill="#f1c27d" d="M 428.453125 332.5625 C 428.453125 332.5625 404.242188 368.878906 352.933594 378.105469 C 277.242188 391.710938 238.789062 345.246094 238.789062 345.246094 C 238.789062 345.246094 290.097656 330.832031 291.25 323.335938 C 292.113281 317.738281 283.636719 299.582031 279.300781 290.765625 C 235.648438 289.667969 206.648438 258.050781 206.648438 258.050781 C 192.8125 279.234375 148.710938 255.886719 150.441406 229.511719 C 152.171875 203.140625 180.707031 210.058594 180.707031 210.058594 C 220.054688 201.121094 273.953125 114.648438 274.53125 94.46875 C 286.78125 98.671875 297.40625 103.808594 306.667969 109.503906 C 321.621094 104.957031 347.015625 101.226562 370.230469 116.953125 C 404.613281 140.246094 412.824219 197.660156 365.679688 228.171875 C 363.617188 237.488281 359.945312 246.996094 353.96875 255.742188 L 378.308594 305.4375 C 380.542969 310 384.292969 313.648438 388.914062 315.757812 Z M 428.453125 332.5625 C 428.453125 332.5625 404.242188 368.878906 352.933594 378.105469 C 277.242188 391.710938 238.789062 345.246094 238.789062 345.246094 C 238.789062 345.246094 290.097656 330.832031 291.25 323.335938 C 292.113281 317.738281 283.636719 299.582031 279.300781 290.765625 C 235.648438 289.667969 206.648438 258.050781 206.648438 258.050781 C 192.8125 279.234375 148.710938 255.886719 150.441406 229.511719 C 152.171875 203.140625 180.707031 210.058594 180.707031 210.058594 C 220.054688 201.121094 273.953125 114.648438 274.53125 94.46875 C 286.78125 98.671875 297.40625 103.808594 306.667969 109.503906 C 321.621094 104.957031 347.015625 101.226562 370.230469 116.953125 C 404.613281 140.246094 412.824219 197.660156 365.679688 228.171875 C 363.617188 237.488281 359.945312 246.996094 353.96875 255.742188 L 378.308594 305.4375 C 380.542969 310 384.292969 313.648438 388.914062 315.757812 Z M 428.453125 332.5625 " fill-opacity="1" fill-rule="nonzero"/><path fill="#892f2c" d="M 422.585938 375.683594 L 369.652344 234.3125 C 401.335938 217.792969 416.464844 179.871094 403.617188 145.554688 C 389.714844 108.433594 348.355469 89.605469 311.230469 103.507812 C 274.109375 117.40625 255.285156 158.769531 269.183594 195.890625 C 282.035156 230.207031 318.351562 248.867188 353.09375 240.511719 L 405.867188 381.453125 C 407.503906 385.816406 412.160156 388.554688 416.652344 387.304688 C 421.71875 385.894531 424.390625 380.5 422.585938 375.683594 Z M 282.699219 191.292969 C 271.8125 162.222656 288.734375 125.78125 317.804688 114.894531 C 346.878906 104.011719 379.570312 121.410156 390.457031 150.480469 C 401.34375 179.554688 385.941406 214.5 356.871094 225.386719 C 327.796875 236.273438 293.585938 220.363281 282.699219 191.292969 Z M 282.699219 191.292969 " fill-opacity="1" fill-rule="nonzero"/><path fill="#f1c27d" d="M 365.5625 513 C 370.789062 507.25 364.515625 497.839844 358.765625 496.269531 C 362.425781 492.085938 351.96875 485.289062 345.171875 485.289062 C 348.308594 481.628906 336.285156 474.832031 323.734375 477.972656 C 311.1875 481.109375 292.367188 485.289062 290.796875 491.042969 C 289.230469 496.792969 278.25 557.964844 278.25 557.964844 C 278.25 557.964844 294.132812 583.335938 305.085938 605.820312 C 309.789062 608.957031 332.644531 594.40625 336.792969 576.996094 C 339.550781 565.40625 339.128906 540.621094 340.988281 539.664062 C 351.464844 534.273438 359.464844 534.921875 359.464844 534.921875 C 359.464844 534.921875 355.816406 548.824219 362.273438 551.566406 C 364.988281 552.71875 378.039062 545.441406 374.378906 520.867188 C 374.378906 520.871094 372.882812 515.09375 365.5625 513 Z M 493.367188 319.800781 L 464.773438 355.042969 C 464.773438 355.042969 452.535156 357.714844 439.480469 347.550781 C 428.09375 338.6875 409.429688 320.3125 409.429688 320.3125 C 409.429688 320.3125 397.683594 325.390625 387.164062 330.902344 L 389.542969 338.253906 C 389.542969 338.253906 383.828125 339.445312 378.515625 337.605469 C 371.734375 335.253906 369.605469 326.773438 369.605469 326.773438 L 369.628906 326.773438 C 368.902344 324.664062 369.046875 322.335938 370.300781 320.3125 C 365.113281 320.597656 357.113281 314.691406 359.707031 307.773438 C 352.214844 310.367188 346.953125 301.503906 348.464844 295.234375 C 345.007812 296.960938 338.808594 287.019531 344 279.234375 C 349.667969 270.730469 367.058594 253.507812 385 253.507812 C 406.910156 253.507812 444.886719 280.386719 451.226562 285.578125 C 457.566406 290.765625 493.367188 319.800781 493.367188 319.800781 Z M 493.367188 319.800781 " fill-opacity="1" fill-rule="nonzero"/><path fill="#000000" d="M 137.191406 165.898438 C 136.496094 163.660156 139.996094 162.710938 140.6875 164.933594 C 144.972656 178.730469 150.390625 192.140625 156.902344 205.039062 C 157.953125 207.121094 154.824219 208.953125 153.773438 206.871094 C 147.121094 193.699219 141.570312 179.988281 137.191406 165.898438 Z M 171.699219 197.6875 C 169.296875 169.441406 173.175781 140.816406 182.964844 114.210938 C 185.753906 106.625 189.039062 99.234375 192.769531 92.066406 C 193.847656 89.996094 190.71875 88.164062 189.640625 90.234375 C 176.339844 115.796875 168.765625 144.214844 167.542969 173.003906 C 167.191406 181.234375 167.375 189.480469 168.074219 197.6875 C 168.269531 199.996094 171.898438 200.015625 171.699219 197.6875 Z M 162.070312 282.398438 C 162.449219 280.113281 158.953125 279.132812 158.574219 281.433594 C 154.171875 307.980469 146.089844 333.914062 134.515625 358.210938 C 131.234375 365.101562 127.675781 371.855469 123.863281 378.460938 C 122.695312 380.488281 125.824219 382.316406 126.992188 380.292969 C 140.59375 356.714844 150.894531 331.230469 157.449219 304.804688 C 159.285156 297.402344 160.820312 289.921875 162.070312 282.398438 Z M 172.878906 232.726562 C 170.558594 232.859375 170.542969 236.484375 172.878906 236.351562 C 178.65625 236.015625 184.375 238.289062 188.398438 242.371094 C 185.761719 242.632812 183.222656 243.789062 181.300781 245.6875 C 179.640625 247.332031 182.203125 249.894531 183.867188 248.253906 C 186.019531 246.117188 189.164062 245.414062 192.039062 246.332031 C 193.523438 246.808594 194.925781 244.988281 194.085938 243.667969 C 189.574219 236.589844 181.289062 232.238281 172.878906 232.726562 Z M 334.390625 521.667969 C 345.082031 519.765625 355.3125 515.585938 366.175781 514.613281 C 368.480469 514.40625 368.503906 510.777344 366.175781 510.988281 C 354.96875 511.992188 344.453125 516.210938 333.429688 518.171875 C 331.136719 518.582031 332.105469 522.078125 334.390625 521.667969 Z M 320.652344 507.320312 C 333.894531 505.554688 346.550781 501.140625 359.6875 498.867188 C 361.984375 498.46875 361.011719 494.976562 358.726562 495.371094 C 345.914062 497.585938 333.558594 501.972656 320.652344 503.695312 C 319.671875 503.828125 318.847656 504.4375 318.839844 505.507812 C 318.828125 506.390625 319.679688 507.453125 320.652344 507.320312 Z M 346.6875 483.007812 C 333.972656 485.355469 321.425781 489.046875 308.542969 490.4375 C 306.25 490.683594 306.222656 494.3125 308.542969 494.0625 C 321.757812 492.636719 334.609375 488.910156 347.652344 486.503906 C 349.941406 486.082031 348.972656 482.585938 346.6875 483.007812 Z M 359.171875 536.605469 C 361.863281 536.035156 364.554688 535.464844 367.246094 534.894531 C 368.171875 534.695312 368.800781 533.558594 368.511719 532.664062 C 368.195312 531.683594 367.277344 531.1875 366.28125 531.398438 C 363.589844 531.96875 360.898438 532.539062 358.207031 533.109375 C 357.277344 533.308594 356.652344 534.445312 356.941406 535.339844 C 357.257812 536.320312 358.175781 536.816406 359.171875 536.605469 Z M 168.542969 578.792969 C 170.820312 579.226562 171.796875 575.734375 169.503906 575.296875 C 161.175781 573.71875 152.722656 572.875 144.246094 572.808594 C 141.910156 572.789062 141.910156 576.414062 144.246094 576.433594 C 152.402344 576.5 160.527344 577.277344 168.542969 578.792969 Z M 153.804688 403.117188 C 166.5 411.953125 173.933594 426.125 180.667969 439.625 C 181.707031 441.710938 184.835938 439.878906 183.796875 437.792969 C 176.75 423.664062 168.898438 409.21875 155.632812 399.988281 C 153.714844 398.652344 151.898438 401.792969 153.804688 403.117188 Z M 185.734375 459.296875 C 190.472656 473.914062 192.53125 489.359375 193.871094 504.621094 C 195.335938 521.289062 195.777344 538.042969 195.777344 554.769531 C 195.777344 563.140625 195.65625 571.507812 195.46875 579.875 C 195.417969 582.210938 199.042969 582.210938 199.09375 579.875 C 199.445312 564.207031 199.5625 548.527344 199.09375 532.859375 C 198.589844 516.121094 197.496094 499.339844 194.855469 482.789062 C 193.539062 474.527344 191.8125 466.300781 189.230469 458.332031 C 188.511719 456.121094 185.011719 457.066406 185.734375 459.296875 Z M 158.242188 479.90625 C 165.792969 495.574219 174.273438 510.777344 183.640625 525.429688 C 184.890625 527.390625 188.03125 525.574219 186.769531 523.601562 C 177.402344 508.945312 168.921875 493.742188 161.375 478.074219 C 160.363281 475.976562 157.234375 477.8125 158.242188 479.90625 Z M 437.414062 471.128906 C 426.863281 501.789062 413.511719 531.453125 397.597656 559.703125 C 381.769531 587.800781 363.4375 614.496094 342.847656 639.3125 C 331.253906 653.285156 318.949219 666.660156 306 679.382812 C 304.335938 681.019531 306.898438 683.582031 308.566406 681.945312 C 331.792969 659.125 352.917969 634.1875 371.660156 607.5625 C 390.414062 580.929688 406.765625 552.601562 420.433594 523.035156 C 428.113281 506.414062 434.953125 489.40625 440.910156 472.089844 C 441.667969 469.878906 438.167969 468.929688 437.414062 471.128906 Z M 317.453125 631.511719 C 317.710938 631.222656 317.824219 630.914062 317.878906 630.601562 C 317.984375 630.207031 317.972656 629.773438 317.734375 629.316406 C 306.625 608.128906 296.046875 586.597656 283.433594 566.242188 C 280.253906 561.109375 276.9375 556.050781 273.285156 551.234375 C 272.929688 550.765625 272.460938 550.539062 271.980469 550.484375 C 271.644531 550.332031 271.246094 550.285156 270.773438 550.472656 C 253.425781 557.335938 236.347656 564.871094 219.371094 572.601562 C 202.835938 580.125 186.394531 587.855469 169.859375 595.371094 C 161.441406 599.195312 153 602.964844 144.480469 606.558594 C 143.574219 606.945312 143.390625 608.269531 143.832031 609.039062 C 144.367188 609.980469 145.414062 610.070312 146.3125 609.691406 C 161.820312 603.140625 177.097656 596.0625 192.375 588.996094 C 209.195312 581.222656 226.003906 573.417969 242.980469 565.992188 C 252.261719 561.933594 261.601562 558 271.015625 554.265625 C 277.511719 563.007812 283.101562 572.433594 288.464844 581.898438 C 294.640625 592.796875 300.464844 603.890625 306.230469 615.011719 C 308.804688 619.976562 311.371094 624.949219 313.960938 629.90625 C 311.5 632.464844 308.730469 634.773438 306.0625 637.085938 C 300.347656 642.035156 294.511719 646.851562 288.636719 651.609375 C 271.769531 665.269531 254.511719 678.457031 236.925781 691.175781 C 225.683594 699.3125 214.289062 707.246094 202.707031 714.890625 C 200.765625 716.171875 202.582031 719.3125 204.535156 718.019531 C 224.800781 704.652344 244.492188 690.421875 263.789062 675.695312 C 278.414062 664.535156 292.890625 653.140625 306.859375 641.167969 C 310.457031 638.085938 314.269531 635.039062 317.453125 631.511719 Z M 563.117188 503.367188 C 543.988281 491.660156 526.007812 478.035156 508.621094 463.910156 C 490.675781 449.328125 473.234375 434.015625 456.984375 417.554688 C 450.28125 410.765625 443.691406 403.757812 437.863281 396.1875 C 451.496094 376.179688 466.105469 356.84375 481.679688 338.304688 C 486.132812 333.003906 490.664062 327.765625 495.269531 322.589844 C 496.8125 320.851562 494.257812 318.277344 492.703125 320.027344 C 476.207031 338.574219 460.65625 357.957031 446.125 378.082031 C 442.015625 383.773438 437.992188 389.527344 434.050781 395.332031 C 433.722656 395.8125 433.6875 396.6875 434.050781 397.164062 C 445.96875 412.890625 460.574219 426.675781 475.128906 439.914062 C 492.242188 455.480469 510.128906 470.238281 528.671875 484.074219 C 528.824219 490.699219 531.320312 497.074219 535.675781 502.070312 C 536.320312 502.808594 537.578125 502.730469 538.238281 502.070312 C 538.972656 501.339844 538.882812 500.25 538.238281 499.507812 C 535.164062 495.980469 533.21875 491.582031 532.550781 486.976562 C 541.882812 493.835938 551.40625 500.453125 561.285156 506.496094 C 563.28125 507.71875 565.105469 504.585938 563.117188 503.367188 Z M 509.523438 476.632812 C 507.894531 479.621094 506.027344 482.472656 504.5 485.515625 C 502.921875 488.660156 501.867188 491.914062 501.492188 495.421875 C 501.386719 496.394531 502.398438 497.234375 503.304688 497.234375 C 504.371094 497.234375 505.011719 496.398438 505.117188 495.421875 C 505.792969 489.078125 509.6875 483.902344 512.652344 478.464844 C 513.769531 476.414062 510.640625 474.582031 509.523438 476.632812 Z M 333.789062 275.582031 C 324.25 281.710938 313.519531 285.867188 302.449219 288.226562 C 295.355469 289.742188 288.125 290.457031 280.867188 290.4375 C 278.535156 290.433594 278.53125 294.058594 280.867188 294.066406 C 304.285156 294.121094 329.410156 286.542969 346.644531 270.132812 C 350.339844 266.613281 353.648438 262.597656 356.085938 258.101562 C 357.195312 256.046875 354.066406 254.214844 352.953125 256.269531 C 348.582031 264.339844 341.425781 270.671875 333.789062 275.582031 Z M 249.148438 206.992188 C 252.078125 205.648438 252.777344 200.90625 250.710938 196.402344 C 248.644531 191.898438 244.59375 189.339844 241.664062 190.683594 C 238.734375 192.027344 238.035156 196.769531 240.101562 201.273438 C 242.167969 205.773438 246.21875 208.335938 249.148438 206.992188 Z M 340.410156 188.585938 C 347.410156 185.371094 349.082031 174.046875 344.144531 163.289062 C 339.210938 152.53125 329.535156 146.414062 322.535156 149.625 C 315.535156 152.835938 313.863281 164.160156 318.796875 174.917969 C 323.734375 185.679688 333.410156 191.796875 340.410156 188.585938 Z M 298.4375 248.601562 C 298.4375 249.410156 299.199219 250.371094 300.09375 250.257812 C 305.867188 249.535156 311.203125 247.316406 315.785156 243.730469 C 316.488281 243.179688 316.363281 241.964844 315.785156 241.386719 C 315.085938 240.691406 314.148438 240.832031 313.441406 241.386719 C 309.625 244.371094 304.898438 246.339844 300.09375 246.945312 C 299.203125 247.054688 298.4375 247.625 298.4375 248.601562 Z M 275.378906 238.8125 C 285.410156 240.832031 295.945312 239.570312 305.183594 235.328125 C 303.886719 234.703125 302.613281 234.03125 301.355469 233.332031 C 293.4375 236.429688 284.6875 237.3125 276.261719 235.613281 C 274.175781 235.195312 273.285156 238.390625 275.378906 238.8125 Z M 346.207031 273.59375 C 344.6875 275.347656 343.230469 277.164062 341.796875 278.992188 C 340.253906 280.964844 338.714844 282.933594 337.75 285.261719 C 337.003906 287.054688 336.511719 289.023438 337.195312 290.902344 C 337.796875 292.550781 338.957031 293.996094 340.210938 295.203125 C 342.191406 297.101562 344.984375 299.019531 347.859375 299.226562 C 347.550781 302.332031 348.691406 305.503906 350.792969 307.820312 C 352.996094 310.25 356.175781 311.585938 359.40625 311.949219 C 359.324219 315.003906 360.269531 317.992188 362.171875 320.453125 C 364.125 322.980469 367.226562 325.011719 370.421875 324.871094 C 370.800781 329.671875 372.304688 334.472656 375.832031 337.921875 C 377.429688 339.484375 379.6875 340.410156 381.816406 340.972656 C 384.34375 341.640625 387.03125 341.832031 389.589844 341.226562 C 391.859375 340.691406 390.898438 337.195312 388.628906 337.730469 C 386.664062 338.195312 384.585938 337.972656 382.65625 337.441406 C 381.765625 337.199219 380.894531 336.894531 380.082031 336.480469 C 379.265625 336.0625 378.792969 335.765625 378.285156 335.242188 C 375.324219 332.210938 374.1875 328.085938 373.976562 323.957031 C 383.820312 315.773438 394.300781 308.4375 404.941406 301.339844 C 406.871094 300.050781 405.058594 296.910156 403.113281 298.207031 C 392.382812 305.367188 381.832031 312.789062 371.886719 321.015625 C 371.605469 321.03125 371.320312 321.082031 371.042969 321.203125 C 371.242188 321.117188 370.761719 321.273438 370.71875 321.285156 C 370.613281 321.304688 370.5625 321.316406 370.539062 321.320312 C 370.496094 321.324219 370.453125 321.328125 370.410156 321.328125 C 370.015625 321.335938 369.691406 321.316406 369.484375 321.265625 C 368.660156 321.070312 368.203125 320.886719 367.5 320.464844 C 367.21875 320.296875 366.941406 320.109375 366.675781 319.914062 C 366.625 319.871094 366.46875 319.746094 366.445312 319.722656 C 366.335938 319.628906 366.226562 319.53125 366.117188 319.433594 C 365.859375 319.195312 365.617188 318.941406 365.382812 318.679688 C 365.265625 318.550781 365.152344 318.414062 365.042969 318.28125 C 365.027344 318.261719 365.03125 318.265625 365.023438 318.257812 C 364.980469 318.199219 364.9375 318.144531 364.898438 318.085938 C 364.507812 317.539062 364.164062 316.957031 363.871094 316.347656 C 363.867188 316.339844 363.753906 316.085938 363.734375 316.050781 C 363.679688 315.917969 363.628906 315.78125 363.578125 315.644531 C 363.460938 315.316406 363.359375 314.980469 363.269531 314.636719 C 363.183594 314.296875 363.117188 313.953125 363.054688 313.609375 C 363.042969 313.539062 363.039062 313.527344 363.035156 313.511719 C 363.035156 313.488281 363.035156 313.472656 363.027344 313.394531 C 363.019531 313.21875 363 313.046875 362.992188 312.871094 C 362.976562 312.550781 362.976562 312.226562 362.988281 311.90625 C 362.996094 311.742188 363.007812 311.578125 363.019531 311.417969 C 363.359375 311.378906 363.699219 311.273438 364.015625 311 C 373.917969 302.457031 383.746094 293.832031 393.632812 285.273438 C 395.402344 283.742188 392.828125 281.1875 391.070312 282.710938 C 381.183594 291.269531 371.351562 299.890625 361.453125 308.4375 C 361.429688 308.457031 361.425781 308.480469 361.402344 308.503906 C 361.289062 308.480469 361.183594 308.433594 361.066406 308.429688 C 358.269531 308.40625 355.457031 307.480469 353.484375 305.394531 C 351.683594 303.492188 350.960938 300.707031 351.722656 298.261719 C 351.722656 298.257812 351.722656 298.253906 351.722656 298.246094 C 361.941406 289.515625 371.605469 280.117188 382.457031 272.152344 C 384.320312 270.789062 382.511719 267.640625 380.628906 269.023438 C 369.554688 277.148438 359.671875 286.691406 349.25 295.601562 C 349.121094 295.605469 349 295.582031 348.855469 295.613281 C 346.503906 296.164062 343.585938 293.558594 342.152344 292.007812 C 341.46875 291.265625 340.582031 290.222656 340.464844 289.199219 C 340.261719 287.363281 341.75 285.164062 342.726562 283.746094 C 347.382812 276.988281 353.269531 271.046875 359.367188 265.601562 C 361.113281 264.042969 358.542969 261.488281 356.804688 263.039062 C 353.082031 266.363281 349.480469 269.816406 346.207031 273.59375 Z M 388.726562 333.117188 C 396.105469 329.550781 403.097656 325.265625 410.433594 321.617188 C 412.519531 320.578125 410.6875 317.449219 408.601562 318.488281 C 401.269531 322.136719 394.273438 326.421875 386.898438 329.988281 C 384.796875 331.003906 386.632812 334.128906 388.726562 333.117188 Z M 388.726562 333.117188 " fill-opacity="1" fill-rule="nonzero"/></svg>